<svg width="55" height="54" viewBox="0 0 55 54" fill="none" xmlns="http://www.w3.org/2000/svg">
<g clip-path="url(#clip0_472_6770)">
<path d="M27.5174 0.0153251C34.3704 0.0252757 40.4506 2.22227 45.6589 6.70687C50.4824 10.8605 53.4561 16.1196 54.5935 22.4179C54.9455 24.3656 55.0747 26.3321 54.958 28.2977C54.5773 34.7284 52.2364 40.3515 47.8759 45.0839C43.6648 49.6533 38.4534 52.4159 32.3768 53.5314C31.2743 53.7336 30.1442 53.7865 29.0261 53.8985C28.5465 53.9467 28.0642 54.0069 27.5841 53.9996C22.5002 53.9179 17.6996 52.7416 13.3125 50.1079C6.92248 46.2722 2.7135 40.7506 0.796498 33.4971C0.413722 32.048 0.143435 30.5742 0.0856275 29.0722C0.0377154 27.8205 -0.0445685 26.5615 0.0299036 25.3146C0.217386 22.1764 0.911591 19.1399 2.22397 16.2799C5.9507 8.15599 12.198 3.05184 20.7691 0.791475C22.9725 0.210672 25.2234 -0.0710883 27.5174 0.0153251ZM27.4627 53.181C27.8096 53.1653 28.1387 53.1533 28.4678 53.1339C28.7954 53.1145 29.123 53.0889 29.4506 53.0643C32.355 52.8459 35.1412 52.1237 37.7185 50.7793C46.9421 45.9674 51.4849 38.1331 52.151 27.8619C52.2536 26.2798 52.1078 24.6955 51.8849 23.1223C51.3084 19.0519 49.9403 15.2733 47.6301 11.8807C43.1263 5.26926 36.9222 1.50006 28.9433 0.808757C27.494 0.683065 26.0394 0.776811 24.5896 0.959588C21.9841 1.28848 19.4786 1.97874 17.1574 3.20058C8.15101 7.94232 3.60821 15.6038 2.84162 25.6555C2.67444 27.8462 2.87755 30.0411 3.31188 32.2056C4.49615 38.1105 7.23495 43.1367 11.7501 47.1185C16.2398 51.0778 21.5024 53.0821 27.4627 53.181Z" fill="#212121"/>
<path d="M29.4793 18.8079C29.3257 18.8781 29.1695 18.9436 29.0184 19.019C25.3193 20.863 21.6223 22.7117 17.9174 24.5447C17.6028 24.7003 17.4581 24.9024 17.3742 25.236C16.1077 30.2721 14.8276 35.305 13.5501 40.3385C13.5168 40.4705 13.472 40.5993 13.434 40.7245C12.5533 40.6124 11.8367 39.8839 11.8654 39.0465C11.8878 38.3892 11.9898 37.7262 12.1351 37.0836C12.6377 34.8567 13.172 32.6367 13.6985 30.4156C14.0001 29.1435 14.3104 27.8735 14.6146 26.6019C14.6417 26.4888 14.6505 26.3709 14.6807 26.173C13.1335 26.9402 11.6513 27.6755 10.1629 28.4134C10.0296 28.1175 10.2223 28.0631 10.3728 27.9877C10.8847 27.73 11.3977 27.4744 11.9107 27.2183C12.7497 26.7993 13.5819 26.3652 14.4323 25.9708C14.751 25.8226 14.8968 25.6105 14.9817 25.2827C15.7416 22.3472 16.5087 19.4134 17.2867 16.4826C17.4836 15.7421 17.7445 15.0188 17.9434 14.2783C18.0648 13.8263 18.1601 13.3608 18.2028 12.8952C18.2517 12.361 18.0512 12.0918 17.5659 11.8807C17.4336 11.8231 17.3024 11.7639 17.1821 11.6503C18.4215 11.6016 19.6506 11.5424 20.9598 11.6335C19.8417 15.8908 18.746 20.0601 17.6304 24.3085C17.7934 24.2572 17.8872 24.2405 17.9684 24.1996C24.9141 20.7321 31.8603 17.2661 38.8014 13.7897C39.8101 13.2843 40.8043 12.7464 41.7844 12.1871C42.1995 11.9504 42.614 11.8582 43.0744 11.9095C43.3593 11.9415 43.6446 11.9719 43.966 12.0075C43.8842 12.2662 43.6983 12.306 43.5603 12.384C40.4288 14.151 37.2874 15.9013 34.1622 17.6793C30.0553 20.0162 25.9213 22.3074 21.9498 24.8752C21.0749 25.4408 20.1958 26.0106 19.3808 26.6574C18.7319 27.1722 18.1195 27.7593 17.5945 28.4004C16.6524 29.551 16.8987 30.479 18.2392 31.1085C19.1897 31.5547 20.2052 31.7967 21.2301 31.9779C24.4918 32.5545 27.7602 33.0923 31.0208 33.6763C33.7164 34.1592 36.4156 34.6352 39.0383 35.4522C41.1673 36.1158 42.9208 37.3585 44.4092 39.003C44.5331 39.1397 44.6341 39.2979 44.7456 39.4456C44.7237 39.4775 44.7018 39.5095 44.68 39.5414C44.442 39.4199 44.2003 39.3057 43.9675 39.1753C42.488 38.3447 40.922 37.7325 39.2638 37.3931C38.2634 37.1883 37.2479 37.0459 36.2328 36.927C32.5993 36.5007 28.9742 36.0178 25.3771 35.3438C23.8241 35.0526 22.2935 34.6708 20.8182 34.09C19.8891 33.7245 19.0355 33.2311 18.2804 32.5733C17.7096 32.0763 17.2477 31.4929 16.9388 30.7943C16.5759 29.9726 16.5509 29.1477 16.8717 28.3035C17.2399 27.3346 17.8112 26.5029 18.609 25.8614C19.5428 25.1109 20.5083 24.3955 21.4941 23.7152C23.8861 22.0649 26.4307 20.6666 28.9471 19.2232C29.1419 19.1117 29.3366 18.9996 29.5314 18.8875C29.5142 18.8619 29.4976 18.8357 29.4804 18.81L29.4793 18.8079Z" fill="#212121"/>
</g>
<defs>
<clipPath id="clip0_472_6770">
<rect width="55" height="54" fill="white"/>
</clipPath>
</defs>
</svg>
